<svg xmlns="http://www.w3.org/2000/svg" xmlns:xlink="http://www.w3.org/1999/xlink" id="Capa_1" width="512" height="512" enable-background="new 0 0 512 512" viewBox="0 0 512 512"><linearGradient id="SVGID_1_" x1="256" x2="256" y1="421" y2="91" gradientUnits="userSpaceOnUse"><stop offset="0" stop-color="#00b59c"/><stop offset="1" stop-color="#9cffac"/></linearGradient><linearGradient id="SVGID_2_" x1="256" x2="256" y1="361" y2="151" gradientUnits="userSpaceOnUse"><stop offset="0" stop-color="#c3ffe8"/><stop offset=".997" stop-color="#f0fff4"/></linearGradient><g id="Credit_Card_2_"><g><g><path fill="url(#SVGID_1_)" d="m512 136c0-24.9-20.098-45-45-45h-422c-24.902 0-45 20.1-45 45v15l60 15-60 15v195c0 24.898 20.098 45 45 45h422c24.902 0 45-20.102 45-45v-195l-67.5-15 67.5-15z"/></g></g><g><g><path fill="url(#SVGID_2_)" d="m105 331h-30c-8.291 0-15 6.709-15 15s6.709 15 15 15h30c8.291 0 15-6.709 15-15s-6.709-15-15-15zm90 0h-30c-8.291 0-15 6.709-15 15s6.709 15 15 15h30c8.291 0 15-6.709 15-15s-6.709-15-15-15zm197-90c-33.076 0-60 26.909-60 60s26.924 60 60 60 60-26.909 60-60-26.924-60-60-60zm-392-90v30h512v-30z"/></g></g></g></svg>