<svg xmlns="http://www.w3.org/2000/svg" width="158.876" height="222.648" viewBox="0 0 158.876 222.648">
  <g id="Icon_map-atm" data-name="Icon map-atm" transform="translate(-3.76 1.28)">
    <path id="Tracé_15" data-name="Tracé 15" d="M94.031,64.988,82.83,18.225A15.278,15.278,0,0,0,64.4,6.956,17.2,17.2,0,0,0,52.251,17.232c-1.681,4.15-9.183,22.953-10.937,26.839a4.842,4.842,0,0,1-2.177,2.177c-1.49.66-16.4,6.951-16.4,6.951v.027a8.576,8.576,0,0,0,3.7,16.362,8.78,8.78,0,0,0,2.943-.542v.032l19.792-8.227a11.2,11.2,0,0,0,5.389-5.207c.565-.984,2.282-5.1,3.681-8.482L70.19,97.111,70.176,174.5c-.023,7.689,5.289,13.957,13.051,13.984s13.388-6.181,13.438-13.884l.077-91.345c-.009-4.3-1.717-14.5-2.71-18.271Z" transform="translate(63.894 30.88)" fill="none" stroke="#000" stroke-width="4"/>
    <path id="Tracé_16" data-name="Tracé 16" d="M55.312,18.121A17.561,17.561,0,1,1,37.752.72a17.481,17.481,0,0,1,17.56,17.4Z" transform="translate(76.872)" fill="none" stroke="#000" stroke-width="4"/>
    <path id="Tracé_17" data-name="Tracé 17" d="M47.353,123.521v19.5a10.3,10.3,0,0,0,6.163-3.476,9.742,9.742,0,0,0,2.364-6.518,8.867,8.867,0,0,0-1.981-5.78q-2.009-2.405-6.546-3.722ZM35.309,93.243a8.683,8.683,0,0,0-1.781,5.293,8.331,8.331,0,0,0,1.613,4.92,11.248,11.248,0,0,0,4.892,3.681V89.84a9.365,9.365,0,0,0-4.724,3.4ZM81.635,70.084h.018l-27.217-54.6,0,.05A12.4,12.4,0,0,0,43.249,8.539H18.164A12.343,12.343,0,0,0,5.76,20.825V177.718H83.043V76.243a14.376,14.376,0,0,0-1.408-6.159ZM62.722,146.47q-5.535,6.2-15.355,7.593v9.352h-7.32v-9.1a23.489,23.489,0,0,1-14.18-6.446q-5.439-5.4-6.951-15.246l13.164-1.408a16.444,16.444,0,0,0,3.029,6.91,13.69,13.69,0,0,0,4.933,4.2V121.375q-9.88-2.8-14.495-8.464a21.077,21.077,0,0,1-4.623-13.77,19.356,19.356,0,0,1,5.229-13.779q5.22-5.569,13.893-6.418V73.992h7.32v4.951q8.008.943,12.759,5.416a20.918,20.918,0,0,1,6.049,11.976L53.416,97.984q-1.168-5.89-6.049-8v19.542q12.1,3.259,16.494,8.423,4.38,5.179,4.387,13.274a22.086,22.086,0,0,1-5.525,15.246Z" transform="translate(0 41.65)" fill="none" stroke="#000" stroke-width="4"/>
  </g>
</svg>
