<svg xmlns="http://www.w3.org/2000/svg" width="224.665" height="197.523" viewBox="0 0 224.665 197.523">
  <path id="Icon_map-food" data-name="Icon map-food" d="M220.429,54.346l-18.051,141.5H141.407L123.429,53.639h74.435L212.576,2.825l8.34,2.514L206.8,54.24l13.629.106Zm-105.62,81.867s2.28-18.35-29.336-18.35H35.121c-31.571,0-29.336,18.35-29.336,18.35H114.809ZM5.784,177.5s-2.234,18.35,29.336,18.35H85.477c31.616,0,29.336-18.35,29.336-18.35H5.784Zm104.295-9.175c5.175,0,9.354-5.11,9.354-11.464,0-6.39-4.179-11.473-9.354-11.473h-100C4.927,145.387.72,150.47.72,156.86c0,6.354,4.207,11.464,9.358,11.464h100Z" transform="translate(1.28 -0.326)" fill="none" stroke="#000" stroke-width="4"/>
</svg>
