<svg id="Capa_1" enable-background="new 0 0 512 512" height="512" viewBox="0 0 512 512" width="512" xmlns="http://www.w3.org/2000/svg" xmlns:xlink="http://www.w3.org/1999/xlink"><linearGradient id="SVGID_1_" gradientUnits="userSpaceOnUse" x1="256" x2="256" y1="330" y2="0"><stop offset="0" stop-color="#ffbef9"/><stop offset="1" stop-color="#fff1ff"/></linearGradient><linearGradient id="SVGID_2_" gradientUnits="userSpaceOnUse" x1="271" x2="271" y1="512" y2="270"><stop offset="0" stop-color="#a93aff"/><stop offset="1" stop-color="#ff81ff"/></linearGradient><g><g><g><path d="m480.399 0c-57.597.3-104.399 47.401-104.399 105v180c0 8.401 6.599 15 15 15h15l45 30 45-30v-285c0-8.401-7.2-15-15.601-15zm-389.399 0c-41.367 0-75 40.371-75 90 0 43.467 25.8 79.831 60 88.191v106.809c0 8.291 6.709 15 15 15s15-6.709 15-15v-106.809c34.2-8.36 60-44.724 60-88.191 0-49.629-33.633-90-75-90zm240 0c-8.291 0-15 6.709-15 15v75h-30v-75c0-8.291-6.709-15-15-15s-15 6.709-15 15v75h-30v-75c0-8.291-6.709-15-15-15s-15 6.709-15 15v90c0 36.218 25.801 66.524 60 73.491v106.509c0 8.291 6.709 15 15 15s15-6.709 15-15v-106.509c34.199-6.968 60-37.273 60-73.491v-90c0-8.291-6.709-15-15-15z" fill="url(#SVGID_1_)"/></g></g><g><g><path d="m91 270c-24.814 0-45 20.186-45 45v152c0 24.814 20.186 45 45 45s45-20.186 45-45v-152c0-24.814-20.186-45-45-45zm180 0c-24.814 0-45 20.186-45 45v152c0 24.814 20.186 45 45 45s45-20.186 45-45v-152c0-24.814-20.186-45-45-45zm135 30v167c0 24.901 20.098 45 45 45s45-20.099 45-45v-167z" fill="url(#SVGID_2_)"/></g></g></g></svg>