<svg id="Capa_1" enable-background="new 0 0 512 512" height="512" viewBox="0 0 512 512" width="512" xmlns="http://www.w3.org/2000/svg" xmlns:xlink="http://www.w3.org/1999/xlink"><linearGradient id="SVGID_1_" gradientUnits="userSpaceOnUse" x1="256" x2="256" y1="436" y2="0"><stop offset="0" stop-color="#ffbef9"/><stop offset="1" stop-color="#fff1ff"/></linearGradient><linearGradient id="SVGID_2_" gradientUnits="userSpaceOnUse" x1="256" x2="256" y1="512" y2="0"><stop offset="0" stop-color="#a93aff"/><stop offset="1" stop-color="#ff81ff"/></linearGradient><g><g><g><path d="m241 211c0 8.291 6.709 15 15 15s15-6.709 15-15l.264-30c0-7.729-6.376-15.352-15.264-15.352-8.291 0-15 6.709-15 15zm15-121.05-30-89.95h-60c-8.401 0-15 6.599-15 15v106c0 5.099 2.402 9.6 6.599 12.599l68.401 45.301zm90-89.95h-60l-30 90.25 30 89.25 68.401-45.901c4.197-2.999 6.599-7.5 6.599-12.599v-106c0-8.401-6.599-15-15-15zm-90 256c-49.629 0-90 40.371-90 90s40.371 90 90 90 90-40.371 90-90-40.371-90-90-90z" fill="url(#SVGID_1_)"/></g></g><g><g><path d="m437 241h15v15c0 8.291 6.709 15 15 15s15-6.709 15-15v-15h15c8.291 0 15-6.709 15-15s-6.709-15-15-15h-15v-15c0-8.291-6.709-15-15-15s-15 6.709-15 15v15h-15c-8.291 0-15 6.709-15 15s6.709 15 15 15zm60 211h-15v-15c0-8.291-6.709-15-15-15s-15 6.709-15 15v15h-15c-8.291 0-15 6.709-15 15s6.709 15 15 15h15v15c0 8.291 6.709 15 15 15s15-6.709 15-15v-15h15c8.291 0 15-6.709 15-15s-6.709-15-15-15zm-422 0h-15v-15c0-8.291-6.709-15-15-15s-15 6.709-15 15v15h-15c-8.291 0-15 6.709-15 15s6.709 15 15 15h15v15c0 8.291 6.709 15 15 15s15-6.709 15-15v-15h15c8.291 0 15-6.709 15-15s-6.709-15-15-15zm0-241h-15v-15c0-8.291-6.709-15-15-15s-15 6.709-15 15v15h-15c-8.291 0-15 6.709-15 15s6.709 15 15 15h15v15c0 8.291 6.709 15 15 15s15-6.709 15-15v-15h15c8.291 0 15-6.709 15-15s-6.709-15-15-15zm181.601-15c2.699 0 5.698-.901 8.401-2.401l20.998-14.099v-179.5h-60v178.9l22.2 14.7c2.702 1.499 5.398 2.4 8.401 2.4zm-.601 15c-74.443 0-135 60.557-135 135s60.557 135 135 135 135-60.557 135-135-60.557-135-135-135zm0 210c-41.353 0-75-33.647-75-75s33.647-75 75-75 75 33.647 75 75-33.647 75-75 75z" fill="url(#SVGID_2_)"/></g></g></g></svg>