<svg xmlns="http://www.w3.org/2000/svg" width="233.638" height="116.794" viewBox="0 0 233.638 116.794">
  <path id="Icon_ionic-logo-game-controller-a" data-name="Icon ionic-logo-game-controller-a" d="M175.184,10.266H59.006C27.629,10.266,2.25,33.593,2.25,66.355c0,32.813,25.379,56.7,56.756,56.7H175.133c31.377,0,56.756-23.892,56.756-56.7C231.94,33.593,206.561,10.266,175.184,10.266Zm-86.8,61.883a2.8,2.8,0,0,1-2.666,2.717H67.876v18c0,1.436-1.589,2.512-2.974,2.512H53.93a2.366,2.366,0,0,1-2.461-2.307v-18.2h-18c-1.436,0-2.512-1.589-2.512-2.974V60.92a2.366,2.366,0,0,1,2.307-2.461h18.2V40.617a2.5,2.5,0,0,1,2.358-2.666H65.158a2.8,2.8,0,0,1,2.717,2.666V58.459H85.718a2.5,2.5,0,0,1,2.666,2.358Zm61.421,4.512a9.845,9.845,0,1,1,10-9.844A9.946,9.946,0,0,1,149.805,76.66Zm21.79,21.431a9.82,9.82,0,1,1,10-9.793A9.9,9.9,0,0,1,171.595,98.091Zm0-42.913a9.82,9.82,0,1,1,10-9.793A9.936,9.936,0,0,1,171.595,55.178ZM193.436,76.66a9.845,9.845,0,1,1,10-9.844A9.9,9.9,0,0,1,193.436,76.66Z" transform="translate(-0.25 -8.266)" fill="none" stroke="#000" stroke-width="4"/>
</svg>
