<svg id="Capa_1" enable-background="new 0 0 512 512" height="512" viewBox="0 0 512 512" width="512" xmlns="http://www.w3.org/2000/svg" xmlns:xlink="http://www.w3.org/1999/xlink"><linearGradient id="SVGID_1_" gradientUnits="userSpaceOnUse" x1="256" x2="256" y1="481" y2="361"><stop offset="0" stop-color="#ffe398"/><stop offset="1" stop-color="#fdfdd3"/></linearGradient><linearGradient id="SVGID_2_" gradientUnits="userSpaceOnUse" x1="256" x2="256" y1="391" y2="31"><stop offset="0" stop-color="#fb5900"/><stop offset="1" stop-color="#ffdc03"/></linearGradient><g><path d="m497 481h-482c-8.291 0-15-6.709-15-15v-90c0-8.291 6.709-15 15-15s15 6.709 15 15c0 8.276 6.738 15 15 15h61c8.262 0 15-6.724 15-15 0-8.291 6.709-15 15-15s15 6.709 15 15c0 8.276 6.738 15 15 15h60c8.262 0 15-6.724 15-15 0-8.291 6.709-15 15-15s15 6.709 15 15c0 8.276 6.738 15 15 15h60c8.262 0 15-6.724 15-15 0-8.291 6.709-15 15-15s15 6.709 15 15c0 8.276 6.738 15 15 15h61c8.262 0 15-6.724 15-15 0-8.291 6.709-15 15-15s15 6.709 15 15v90c0 8.291-6.709 15-15 15z" fill="url(#SVGID_1_)"/><path d="m467 241h-31c-8.262 0-15-6.724-15-15 0-8.291-6.709-15-15-15h-25.137c-25.07 0-47.45-17.133-54.881-42.359-25.073-85.12-111.211-137.641-199.948-137.641h-111.034c-8.284 0-15 6.716-15 15v330c0 8.291 6.709 15 15 15s15-6.709 15-15v-45h91v45c0 8.291 6.709 15 15 15s15-6.709 15-15v-221.276c16.409 6.345 29.635 20.364 35.017 38.635 25.074 85.12 111.212 137.641 199.949 137.641h111.034c8.284 0 15-6.716 15-15v-30c0-24.853-20.147-45-45-45zm-346 60h-91v-30h91zm0-60h-91v-30h91zm-91-60v-30h91v30z" fill="url(#SVGID_2_)"/></g></svg>